<?xml version="1.0" encoding="UTF-8" standalone="no"?>
<!-- Created with Inkscape (http://www.inkscape.org/) -->

<svg
   xmlns:dc="http://purl.org/dc/elements/1.1/"
   xmlns:cc="http://creativecommons.org/ns#"
   xmlns:rdf="http://www.w3.org/1999/02/22-rdf-syntax-ns#"
   xmlns:svg="http://www.w3.org/2000/svg"
   xmlns="http://www.w3.org/2000/svg"
   xmlns:sodipodi="http://sodipodi.sourceforge.net/DTD/sodipodi-0.dtd"
   xmlns:inkscape="http://www.inkscape.org/namespaces/inkscape"
   id="svg9616"
   version="1.1"
   inkscape:version="0.91 r13725"
   xml:space="preserve"
   width="765"
   height="990"
   viewBox="0 0 765 990"
   sodipodi:docname="weather-cube_sensor_coupon_sht31d.svg"><metadata
     id="metadata9622"><rdf:RDF><cc:Work
         rdf:about=""><dc:format>image/svg+xml</dc:format><dc:type
           rdf:resource="http://purl.org/dc/dcmitype/StillImage" /><dc:title></dc:title></cc:Work></rdf:RDF></metadata><defs
     id="defs9620"><clipPath
       clipPathUnits="userSpaceOnUse"
       id="clipPath9632"><path
         d="m 0,6508 3502,0 0,92 -3502,0 0,-92 z"
         id="path9634"
         inkscape:connector-curvature="0" /></clipPath></defs><sodipodi:namedview
     pagecolor="#ffffff"
     bordercolor="#666666"
     borderopacity="1"
     objecttolerance="10"
     gridtolerance="10"
     guidetolerance="10"
     inkscape:pageopacity="0"
     inkscape:pageshadow="2"
     inkscape:window-width="1280"
     inkscape:window-height="961"
     id="namedview9618"
     showgrid="false"
     inkscape:zoom="1.3485026"
     inkscape:cx="493.14683"
     inkscape:cy="486.96074"
     inkscape:window-x="-8"
     inkscape:window-y="-8"
     inkscape:window-maximized="1"
     inkscape:current-layer="g9624" /><g
     id="g9624"
     inkscape:groupmode="layer"
     inkscape:label="weather-cube_sensor_coupon_sht31d"
     transform="matrix(1.25,0,0,-1.25,0,990)"><path
       inkscape:connector-curvature="0"
       id="path9644"
       style="fill:#000000;fill-opacity:1;fill-rule:evenodd;stroke:none"
       d="m 289.08,395.88 2.16,0 0,4.2 -2.16,0 0,-4.2 z" /><path
       inkscape:connector-curvature="0"
       id="path9646"
       style="fill:#000000;fill-opacity:1;fill-rule:evenodd;stroke:none"
       d="m 285.84,395.52 1.68,0 0,0.6 -1.68,0 0,-0.6 z" /><path
       inkscape:connector-curvature="0"
       id="path9648"
       style="fill:#000000;fill-opacity:1;fill-rule:evenodd;stroke:none"
       d="m 285.84,396.96 1.68,0 0,0.6 -1.68,0 0,-0.6 z" /><path
       inkscape:connector-curvature="0"
       id="path9650"
       style="fill:#000000;fill-opacity:1;fill-rule:evenodd;stroke:none"
       d="m 285.84,398.4 1.68,0 0,0.6 -1.68,0 0,-0.6 z" /><path
       inkscape:connector-curvature="0"
       id="path9652"
       style="fill:#000000;fill-opacity:1;fill-rule:evenodd;stroke:none"
       d="m 285.84,399.84 1.68,0 0,0.48 -1.68,0 0,-0.48 z" /><path
       inkscape:connector-curvature="0"
       id="path9654"
       style="fill:#000000;fill-opacity:1;fill-rule:evenodd;stroke:none"
       d="m 292.8,399.84 1.68,0 0,0.48 -1.68,0 0,-0.48 z" /><path
       inkscape:connector-curvature="0"
       id="path9656"
       style="fill:#000000;fill-opacity:1;fill-rule:evenodd;stroke:none"
       d="m 292.8,398.4 1.68,0 0,0.6 -1.68,0 0,-0.6 z" /><path
       inkscape:connector-curvature="0"
       id="path9658"
       style="fill:#000000;fill-opacity:1;fill-rule:evenodd;stroke:none"
       d="m 292.8,396.96 1.68,0 0,0.6 -1.68,0 0,-0.6 z" /><path
       inkscape:connector-curvature="0"
       id="path9660"
       style="fill:#000000;fill-opacity:1;fill-rule:evenodd;stroke:none"
       d="m 292.8,395.52 1.68,0 0,0.6 -1.68,0 0,-0.6 z" /><path
       inkscape:connector-curvature="0"
       id="path9662"
       style="fill:#000000;fill-opacity:1;fill-rule:evenodd;stroke:none"
       d="m 309.36,390.84 2.64,0 0,3 -2.64,0 0,-3 z" /><path
       inkscape:connector-curvature="0"
       id="path9664"
       style="fill:#000000;fill-opacity:1;fill-rule:evenodd;stroke:none"
       d="m 309.36,404.76 2.64,0 0,2.88 -2.64,0 0,-2.88 z" /><path
       inkscape:connector-curvature="0"
       id="path9666"
       style="fill:#000000;fill-opacity:1;fill-rule:evenodd;stroke:none"
       d="m 309.36,399.84 2.64,0 0,3 -2.64,0 0,-3 z" /><path
       inkscape:connector-curvature="0"
       id="path9668"
       style="fill:#000000;fill-opacity:1;fill-rule:evenodd;stroke:none"
       d="m 309.36,395.76 2.64,0 0,2.88 -2.64,0 0,-2.88 z" /><path
       inkscape:connector-curvature="0"
       id="path9670"
       style="fill:#000000;fill-opacity:1;fill-rule:evenodd;stroke:none"
       d="m 298.92,395.4 2.64,0 0,2.88 -2.64,0 0,-2.88 z" /><path
       inkscape:connector-curvature="0"
       id="path9672"
       style="fill:#000000;fill-opacity:1;fill-rule:evenodd;stroke:none"
       d="m 298.92,390.48 2.64,0 0,3 -2.64,0 0,-3 z" /></g></svg>